<svg width="170" height="92" viewBox="0 0 170 92" fill="none" xmlns="http://www.w3.org/2000/svg">
<rect x="0.5" y="0.5" width="169" height="91" rx="3.5" stroke="#AFB1B8"/>
<path d="M81.0469 66.0508C81.2275 66.0508 81.3835 66.0869 81.5137 66.1602C81.6453 66.2317 81.7465 66.3276 81.8164 66.4463C81.8878 66.5649 81.9238 66.6955 81.9238 66.8369C81.9238 66.949 81.9029 67.0519 81.8623 67.1445C81.8216 67.2371 81.7658 67.3221 81.6943 67.3984C81.6228 67.4748 81.5396 67.5469 81.4453 67.6152L81.1973 67.7949L81.9004 68.624C81.9234 68.5787 81.9462 68.5322 81.9648 68.4824C82.0251 68.3262 82.0557 68.1523 82.0557 67.9619H82.5635C82.5635 68.1344 82.5459 68.2985 82.5117 68.4531C82.4792 68.6076 82.4267 68.7511 82.3535 68.8828C82.3239 68.9374 82.2884 68.9883 82.251 69.0381L82.7734 69.6543H82.0918L81.8848 69.4102C81.7729 69.495 81.6518 69.5625 81.5205 69.6104C81.348 69.6722 81.164 69.7031 80.9688 69.7031C80.7329 69.7031 80.5289 69.6594 80.3564 69.5732C80.184 69.487 80.0504 69.3681 79.9561 69.2168C79.8634 69.0656 79.8165 68.8924 79.8164 68.6973C79.8164 68.5525 79.8471 68.4254 79.9072 68.3164C79.9674 68.2058 80.0493 68.1031 80.1533 68.0088C80.2499 67.9211 80.3606 67.8338 80.4844 67.7461C80.4575 67.7119 80.4301 67.6798 80.4053 67.6475C80.3141 67.527 80.2428 67.4102 80.1924 67.2979C80.1419 67.1839 80.1172 67.0667 80.1172 66.9463C80.1172 66.7607 80.1549 66.6012 80.2314 66.4678C80.3079 66.3343 80.4167 66.2318 80.5566 66.1602C80.6965 66.087 80.8599 66.0508 81.0469 66.0508ZM85.7637 66.0508C86.0469 66.0508 86.2861 66.1029 86.4814 66.207C86.6767 66.3112 86.8282 66.4548 86.9355 66.6387C87.0446 66.8226 87.1113 67.0339 87.1357 67.2715H86.5254C86.5091 67.1185 86.4733 66.987 86.418 66.8779C86.3643 66.7689 86.2845 66.6859 86.1787 66.6289C86.0729 66.5703 85.9346 66.541 85.7637 66.541C85.6237 66.541 85.5016 66.5671 85.3975 66.6191C85.2934 66.6712 85.2067 66.7478 85.1367 66.8486C85.0667 66.9495 85.0133 67.0745 84.9775 67.2227C84.9434 67.369 84.9268 67.537 84.9268 67.7256V68.0254C84.9268 68.2044 84.9417 68.3672 84.9727 68.5137C85.0052 68.6585 85.054 68.7835 85.1191 68.8877C85.1858 68.9917 85.2706 69.072 85.373 69.1289C85.4756 69.1859 85.599 69.2148 85.7422 69.2148C85.916 69.2148 86.0568 69.1871 86.1641 69.1318C86.2731 69.0765 86.3558 68.9954 86.4111 68.8896C86.468 68.7824 86.5055 68.6514 86.5234 68.4971H87.1338C87.1142 68.7295 87.049 68.937 86.9385 69.1191C86.8278 69.2998 86.6719 69.4427 86.4717 69.5469C86.2716 69.6509 86.0283 69.7031 85.7422 69.7031C85.5225 69.7031 85.3242 69.664 85.1484 69.5859C84.9729 69.5063 84.8225 69.3936 84.6973 69.249C84.572 69.1026 84.4759 68.9254 84.4092 68.7188C84.3441 68.512 84.3115 68.2809 84.3115 68.0254V67.7305C84.3115 67.4751 84.3445 67.2437 84.4111 67.0371C84.4795 66.8304 84.5771 66.6533 84.7041 66.5068C84.8311 66.3587 84.9837 66.2461 85.1611 66.168C85.3401 66.0899 85.5408 66.0508 85.7637 66.0508ZM89.0498 66.0508C89.2695 66.0508 89.4697 66.0902 89.6504 66.1699C89.8311 66.248 89.987 66.3633 90.1172 66.5146C90.2472 66.6643 90.3471 66.8456 90.417 67.0586C90.4886 67.2702 90.5244 67.5107 90.5244 67.7793V67.9746C90.5244 68.243 90.4899 68.4842 90.4199 68.6973C90.3499 68.9104 90.2493 69.0915 90.1191 69.2412C89.9906 69.391 89.8359 69.5062 89.6553 69.5859C89.4747 69.664 89.2743 69.7031 89.0547 69.7031C88.8368 69.7031 88.6375 69.6639 88.457 69.5859C88.278 69.5062 88.1221 69.391 87.9902 69.2412C87.8585 69.0916 87.7558 68.9103 87.6826 68.6973C87.611 68.4842 87.5752 68.243 87.5752 67.9746V67.7793C87.5752 67.5107 87.611 67.2702 87.6826 67.0586C87.7542 66.8455 87.8553 66.6643 87.9854 66.5146C88.1172 66.3633 88.2731 66.248 88.4521 66.1699C88.6327 66.0903 88.8319 66.0508 89.0498 66.0508ZM73.7959 67.7959L74.6211 66.0996H75.2998L74.1035 68.3457V69.6543H73.4863V68.3457L72.29 66.0996H72.9707L73.7959 67.7959ZM76.9844 66.0996L78.3271 69.6543H77.6826L77.3945 68.8213H76.0195L75.7324 69.6543H75.0898L76.4277 66.0996H76.9844ZM80.7002 68.1572C80.6139 68.2272 80.5501 68.2952 80.5078 68.3604C80.4672 68.4238 80.4398 68.4825 80.4268 68.5361C80.4138 68.5897 80.4072 68.6372 80.4072 68.6777C80.4073 68.7817 80.4298 68.8764 80.4736 68.9609C80.5192 69.0453 80.5848 69.1127 80.6709 69.1631C80.7588 69.2119 80.8659 69.2363 80.9912 69.2363C81.1261 69.2363 81.257 69.2066 81.3838 69.1465C81.4475 69.1155 81.5073 69.0769 81.5645 69.0332L80.7734 68.1035L80.7002 68.1572ZM89.0498 66.5508C88.9147 66.5508 88.7943 66.5781 88.6885 66.6318C88.5828 66.6839 88.4928 66.7621 88.418 66.8662C88.3448 66.9687 88.2881 67.0961 88.249 67.249C88.21 67.4004 88.1904 67.5758 88.1904 67.7744V67.9746C88.1905 68.173 88.21 68.3491 88.249 68.502C88.2881 68.6547 88.3451 68.784 88.4199 68.8896C88.4964 68.9938 88.5876 69.0732 88.6934 69.127C88.7991 69.179 88.9197 69.2051 89.0547 69.2051C89.1914 69.2051 89.3132 69.179 89.4189 69.127C89.5247 69.0732 89.6143 68.9938 89.6875 68.8896C89.7606 68.784 89.8161 68.6547 89.8535 68.502C89.8925 68.3491 89.9121 68.173 89.9121 67.9746V67.7744C89.9121 67.5759 89.8926 67.4004 89.8535 67.249C89.8161 67.0962 89.7593 66.9687 89.6846 66.8662C89.6115 66.7622 89.5212 66.6839 89.4141 66.6318C89.3066 66.5781 89.1849 66.5508 89.0498 66.5508ZM76.1865 68.3359H77.2275L76.7061 66.8271L76.1865 68.3359ZM81.0449 66.5166C80.9621 66.5166 80.8919 66.5363 80.835 66.5752C80.778 66.6126 80.7344 66.6631 80.7051 66.7266C80.6774 66.7884 80.6641 66.8581 80.6641 66.9346C80.6641 67.0077 80.6824 67.0832 80.7197 67.1611C80.7572 67.2376 80.8089 67.3187 80.874 67.4033C80.887 67.4199 80.9014 67.436 80.915 67.4531L81.1328 67.3076C81.2352 67.2393 81.3086 67.1725 81.3525 67.1074C81.3964 67.0407 81.418 66.9576 81.418 66.8584C81.418 66.7738 81.3854 66.6956 81.3203 66.624C81.2553 66.5525 81.1635 66.5167 81.0449 66.5166ZM105 56.1338L98 49.5068V61.8135H64V29.627L77.0078 29.6338L70 23H105V56.1338ZM69.3799 57.1055H91.5234V55.6396H70.9453V35.458H69.3799V57.1055ZM97.6924 48.7275V29.918H77.8223L97.6924 48.7275Z" fill="#AFB1B8"/>
</svg>
